HIERARCHY
ROOT Hips
{
 OFFSET 0.000000 0.000000 0.000000
 CHANNELS 6 Xposition Yposition Zposition Yrotation Xrotation Zrotation
 JOINT Chest
 {
  OFFSET 0.000000 9.968492 -0.001267
  CHANNELS 3 Yrotation Xrotation Zrotation
  JOINT Chest2
  {
   OFFSET 0.000000 10.967159 0.002301
   CHANNELS 3 Yrotation Xrotation Zrotation
   JOINT Chest3
   {
    OFFSET 0.000000 9.909283 0.000000
    CHANNELS 3 Yrotation Xrotation Zrotation
    JOINT Chest4
    {
     OFFSET 0.000000 9.909283 0.000000
     CHANNELS 3 Yrotation Xrotation Zrotation
     JOINT Neck
     {
      OFFSET 0.000000 13.946294 0.000000
      CHANNELS 3 Yrotation Xrotation Zrotation
      JOINT Head
      {
       OFFSET 0.000000 9.224544 0.005472
       CHANNELS 3 Yrotation Xrotation Zrotation
       End Site
       {
        OFFSET 0.000000 17.643221 0.002858
       }
      }
     }
     JOINT RightCollar
     {
      OFFSET -3.037229 7.783075 0.000000
      CHANNELS 3 Yrotation Xrotation Zrotation
      JOINT RightShoulder
      {
       OFFSET -14.223264 0.000000 0.000000
       CHANNELS 3 Yrotation Xrotation Zrotation
       JOINT RightElbow
       {
        OFFSET 0.000000 -30.459151 0.000000
        CHANNELS 3 Yrotation Xrotation Zrotation
        JOINT RightWrist
        {
         OFFSET 0.000000 -24.900006 -0.000000
         CHANNELS 3 Yrotation Xrotation Zrotation
         End Site
         {
          OFFSET 0.000000 -18.592915 0.000000
         }
        }
       }
      }
     }
     JOINT LeftCollar
     {
      OFFSET 3.037229 7.783075 0.000000
      CHANNELS 3 Yrotation Xrotation Zrotation
      JOINT LeftShoulder
      {
       OFFSET 14.223264 0.000000 0.000000
       CHANNELS 3 Yrotation Xrotation Zrotation
       JOINT LeftElbow
       {
        OFFSET 0.000000 -30.459151 0.000000
        CHANNELS 3 Yrotation Xrotation Zrotation
        JOINT LeftWrist
        {
         OFFSET 0.000000 -24.900006 -0.000000
         CHANNELS 3 Yrotation Xrotation Zrotation
         End Site
         {
          OFFSET 0.000000 -18.592915 0.000000
         }
        }
       }
      }
     }
    }
   }
  }
 }
 JOINT RightHip
 {
  OFFSET -8.105589 0.006207 0.000633
  CHANNELS 3 Yrotation Xrotation Zrotation
  JOINT RightKnee
  {
   OFFSET 0.000000 -42.037588 -0.000599
   CHANNELS 3 Yrotation Xrotation Zrotation
   JOINT RightAnkle
   {
    OFFSET 0.000000 -41.031088 -0.001013
    CHANNELS 3 Yrotation Xrotation Zrotation
    JOINT RightToe
    {
     OFFSET 0.000000 -7.217244 16.396997
     CHANNELS 3 Yrotation Xrotation Zrotation
     End Site
     {
      OFFSET 0.000000 -1.535852 6.674588
     }
    }
   }
  }
 }
 JOINT LeftHip
 {
  OFFSET 8.105589 0.006207 0.000633
  CHANNELS 3 Yrotation Xrotation Zrotation
  JOINT LeftKnee
  {
   OFFSET 0.000000 -42.037588 -0.000599
   CHANNELS 3 Yrotation Xrotation Zrotation
   JOINT LeftAnkle
   {
    OFFSET 0.000000 -41.031088 -0.001013
    CHANNELS 3 Yrotation Xrotation Zrotation
    JOINT LeftToe
    {
     OFFSET 0.000000 -7.217244 16.396997
     CHANNELS 3 Yrotation Xrotation Zrotation
     End Site
     {
      OFFSET 0.000000 -1.535852 6.674588
     }
    }
   }
  }
 }
}
MOTION
Frames: 6
Frame Time: 0.008333
13.001748 57.869811 130.548593 16.095257 -15.446426 0.242087 -4.310512 14.960218 -2.141641 -1.551490 6.619077 0.090298 -1.551490 6.619077 0.090298 -1.163302 4.964117 0.084519 -9.550468 17.805382 6.048740 -12.221165 -6.447784 9.110485 -4.309591 6.636849 5.764787 -9.090045 -25.980952 -20.047953 101.299832 -72.084498 -81.553720 -1.001624 3.238242 -13.521271 -3.082890 -0.494957 -10.160471 -3.130527 -18.136920 13.414988 -41.763587 -41.073338 12.969642 -16.700929 6.777809 6.966843 2.067207 -53.679006 -31.494753 137.688578 61.794345 130.374945 24.101774 -23.631749 -4.584034 0.685489 -8.087820 -4.600972 25.362387 -51.080536 9.944692 165.725885 66.752444 170.848476 -33.224176 -19.230699 5.594298 -2.723730 -24.492397 15.881584
13.001833 57.868177 130.548648 16.099335 -15.443922 0.241471 -4.313731 14.959331 -2.141107 -1.551307 6.618924 0.091394 -1.551307 6.618924 0.091394 -1.163176 4.963999 0.085337 -9.555289 17.804997 6.045067 -12.225884 -6.448026 9.107611 -4.303500 6.637635 5.760516 -9.098146 -25.973419 -20.042742 101.322273 -72.084124 -81.573327 -1.000206 3.231371 -13.520075 -3.084358 -0.497048 -10.160677 -3.123149 -18.135847 13.406105 -41.773117 -41.070488 12.979583 -16.698065 6.778999 6.964527 2.058673 -53.681549 -31.491171 137.696813 61.794145 130.379479 24.117195 -23.639854 -4.600601 0.689566 -8.079521 -4.595310 25.362220 -51.085253 9.938620 165.730417 66.749822 170.853665 -33.214796 -19.230298 5.594487 -2.727945 -24.493809 15.879494
13.001455 57.866532 130.546781 16.100361 -15.434059 0.238473 -4.313118 14.953045 -2.136136 -1.551855 6.619101 0.091671 -1.551855 6.619101 0.091671 -1.163590 4.964131 0.085552 -9.558821 17.800280 6.042189 -12.229348 -6.453309 9.105356 -4.295976 6.639367 5.761449 -9.090744 -25.971049 -20.050924 101.343363 -72.092877 -81.594323 -1.002793 3.233070 -13.527613 -3.075984 -0.493156 -10.166270 -3.123449 -18.140019 13.409495 -41.782476 -41.076981 12.989985 -16.690172 6.781967 6.961069 2.050581 -53.695811 -31.478551 137.703220 61.788308 130.384530 24.086132 -23.643771 -4.592028 0.696062 -8.077741 -4.592450 25.368344 -51.099093 9.931641 165.718548 66.749106 170.845254 -33.217574 -19.227661 5.592460 -2.726637 -24.493849 15.879921
12.999462 57.865559 130.546576 16.099510 -15.430708 0.233924 -4.310906 14.953631 -2.130737 -1.551470 6.619442 0.092297 -1.551470 6.619442 0.092297 -1.163308 4.964385 0.086017 -9.561306 17.799826 6.040639 -12.231886 -6.453697 9.104280 -4.291286 6.639612 5.758602 -9.092977 -25.970818 -20.052815 101.370815 -72.102939 -81.619168 -0.999731 3.235001 -13.526500 -3.077363 -0.491759 -10.164617 -3.119185 -18.148961 13.409131 -41.787688 -41.080115 12.986129 -16.681435 6.790052 6.962439 2.038969 -53.700607 -31.464422 137.708098 61.789947 130.387289 24.091649 -23.647732 -4.596977 0.698161 -8.069278 -4.592170 25.359413 -51.105498 9.942531 165.731617 66.747472 170.852642 -33.211736 -19.227525 5.596339 -2.728835 -24.493927 15.875981
13.000014 57.863987 130.545260 16.103580 -15.426329 0.235671 -4.313683 14.956493 -2.133687 -1.550624 6.620590 0.092860 -1.550624 6.620590 0.092860 -1.162680 4.965245 0.086433 -9.563361 17.798128 6.040438 -12.234330 -6.455440 9.104675 -4.294814 6.634639 5.755074 -9.092110 -25.970760 -20.048088 101.386405 -72.105217 -81.637293 -1.003669 3.235413 -13.521349 -3.077168 -0.503401 -10.164149 -3.131862 -18.143147 13.413743 -41.779155 -41.085499 12.984125 -16.681402 6.795932 6.966796 2.049135 -53.707006 -31.478075 137.719755 61.786675 130.408903 24.078997 -23.645242 -4.603308 0.710679 -8.070528 -4.584903 25.356097 -51.108627 9.933688 165.723786 66.744790 170.841268 -33.204327 -19.229565 5.596017 -2.733805 -24.493553 15.873288
13.000863 57.863495 130.544986 16.108911 -15.426026 0.240152 -4.320112 14.960690 -2.141565 -1.550071 6.621017 0.093113 -1.550071 6.621017 0.093113 -1.162269 4.965565 0.086617 -9.562896 17.792666 6.043209 -12.234679 -6.461515 9.107866 -4.294230 6.636508 5.754600 -9.088056 -25.971689 -20.042557 101.397655 -72.105874 -81.645536 -0.996479 3.235528 -13.518289 -3.075208 -0.504370 -10.158797 -3.138153 -18.144351 13.413140 -41.773564 -41.094054 12.987184 -16.681076 6.803635 6.971916 2.049779 -53.707014 -31.488378 137.724627 61.785194 130.414380 24.076744 -23.652029 -4.608595 0.715621 -8.061884 -4.581503 25.351978 -51.102682 9.932321 165.721032 66.749666 170.832575 -33.209634 -19.234015 5.595024 -2.731712 -24.486565 15.874430
